G04 MADE WITH FRITZING*
G04 WWW.FRITZING.ORG*
G04 DOUBLE SIDED*
G04 HOLES PLATED*
G04 CONTOUR ON CENTER OF CONTOUR VECTOR*
%ASAXBY*%
%FSLAX23Y23*%
%MOIN*%
%OFA0B0*%
%SFA1.0B1.0*%
%ADD10C,0.085000*%
%ADD11C,0.080000*%
%ADD12C,0.088000*%
%ADD13R,0.085000X0.085000*%
%ADD14R,0.088000X0.088000*%
%LNMASK0*%
G90*
G70*
G54D10*
X160Y2051D03*
X460Y2051D03*
X160Y1951D03*
X460Y1951D03*
X160Y1851D03*
X460Y1851D03*
X160Y1751D03*
X460Y1751D03*
X669Y2068D03*
X1069Y2068D03*
X669Y1684D03*
X1069Y1684D03*
X1255Y2068D03*
X1655Y2068D03*
X1255Y1584D03*
X1655Y1584D03*
X1814Y1871D03*
X2214Y1871D03*
G54D11*
X2403Y1985D03*
X2503Y1985D03*
X2403Y1794D03*
X2503Y1794D03*
G54D10*
X1858Y1538D03*
X1958Y1538D03*
X138Y1371D03*
X538Y1371D03*
X3623Y2006D03*
X3723Y2006D03*
G54D12*
X3916Y1720D03*
X3916Y1620D03*
X3916Y1520D03*
X3916Y1720D03*
X3916Y1620D03*
X3916Y1520D03*
G54D10*
X3884Y1296D03*
X4284Y1296D03*
X4487Y1345D03*
X4587Y1345D03*
X4791Y1518D03*
X5191Y1518D03*
X5395Y1567D03*
X5495Y1567D03*
X5656Y2068D03*
X6056Y2068D03*
X711Y1278D03*
X1111Y1278D03*
G54D13*
X160Y2051D03*
X1858Y1538D03*
X3623Y2006D03*
G54D14*
X3916Y1720D03*
X3916Y1720D03*
G54D13*
X4487Y1345D03*
X5395Y1567D03*
G04 End of Mask0*
M02*