; NON-PLATED HOLES START AT T1
; THROUGH (PLATED) HOLES START AT T100
M48
INCH
T100C0.030000
T101C0.035000
T102C0.038000
%
T100
X025032Y017939
X025032Y019851
X024030Y019851
X024030Y017939
T101
X051909Y015181
X053945Y015672
X056558Y020681
X018144Y018709
X001600Y018511
X012547Y020681
X016547Y015844
X006686Y016844
X004600Y020511
X037231Y020061
X001600Y017511
X007111Y012777
X004600Y019511
X010686Y020681
X011111Y012777
X016547Y020681
X001375Y013711
X042837Y012958
X004600Y018511
X060558Y020681
X054945Y015672
X038837Y012958
X019583Y015378
X001600Y020511
X012547Y015844
X006686Y020681
X010686Y016844
X004600Y017511
X036231Y020061
X045873Y013449
X018583Y015378
X044873Y013449
X005375Y013711
X047909Y015181
X001600Y019511
X022144Y018709
T102
X039162Y017199
X039162Y016199
X039162Y015199
T00
M30
